<svg width="21" height="20" viewBox="0 0 21 20" fill="none" xmlns="http://www.w3.org/2000/svg">
<path d="M13.8594 12.0898C14.3151 11.7904 14.7318 11.4388 15.1094 11.0352C15.474 10.6315 15.7897 10.1921 16.0566 9.7168C16.3236 9.24154 16.5352 8.73698 16.6914 8.20312C16.8346 7.66927 16.9062 7.1224 16.9062 6.5625C16.9062 5.6901 16.7305 4.8763 16.3789 4.12109C16.0404 3.36588 15.5781 2.70508 14.9922 2.13867C14.4062 1.57227 13.7227 1.1263 12.9414 0.800781C12.1732 0.47526 11.3594 0.3125 10.5 0.3125C9.64062 0.3125 8.82682 0.47526 8.05859 0.800781C7.27734 1.1263 6.59375 1.57227 6.00781 2.13867C5.42188 2.70508 4.95964 3.36588 4.62109 4.12109C4.26953 4.8763 4.09375 5.6901 4.09375 6.5625C4.09375 7.1224 4.16536 7.66927 4.30859 8.20312C4.46484 8.73698 4.67643 9.24154 4.94336 9.7168C5.21029 10.1921 5.52604 10.6315 5.89062 11.0352C6.26823 11.4388 6.6849 11.7904 7.14062 12.0898C6.5026 12.2982 5.9069 12.5586 5.35352 12.8711C4.80013 13.1836 4.28906 13.5286 3.82031 13.9062C3 14.5964 2.3457 15.3776 1.85742 16.25C1.36914 17.1224 1.125 18.0078 1.125 18.9062C1.125 19.1276 1.19987 19.3132 1.34961 19.4629C1.49935 19.6126 1.6849 19.6875 1.90625 19.6875C2.1276 19.6875 2.31315 19.6126 2.46289 19.4629C2.61263 19.3132 2.6875 19.1276 2.6875 18.9062C2.6875 18.3203 2.86979 17.6888 3.23438 17.0117C3.59896 16.3346 4.13281 15.7031 4.83594 15.1172C5.52604 14.5312 6.35286 14.0527 7.31641 13.6816C8.27995 13.3105 9.34115 13.125 10.5 13.125C11.6589 13.125 12.7201 13.3105 13.6836 13.6816C14.6471 14.0527 15.474 14.5312 16.1641 15.1172C16.8672 15.7031 17.401 16.3346 17.7656 17.0117C18.1302 17.6888 18.3125 18.3203 18.3125 18.9062C18.3125 19.1276 18.3874 19.3132 18.5371 19.4629C18.6868 19.6126 18.8724 19.6875 19.0938 19.6875C19.3151 19.6875 19.5007 19.6126 19.6504 19.4629C19.8001 19.3132 19.875 19.1276 19.875 18.9062C19.875 18.0078 19.6309 17.1224 19.1426 16.25C18.6543 15.3776 18 14.5964 17.1797 13.9062C16.7109 13.5286 16.1999 13.1836 15.6465 12.8711C15.0931 12.5586 14.4974 12.2982 13.8594 12.0898ZM5.65625 6.5625C5.65625 5.92448 5.78646 5.31901 6.04688 4.74609C6.30729 4.1862 6.65885 3.69141 7.10156 3.26172C7.54427 2.83203 8.05859 2.49349 8.64453 2.24609C9.23047 1.9987 9.84896 1.875 10.5 1.875C11.151 1.875 11.7695 1.9987 12.3555 2.24609C12.9414 2.49349 13.4557 2.83203 13.8984 3.26172C14.3411 3.69141 14.6927 4.1862 14.9531 4.74609C15.2135 5.31901 15.3438 5.92448 15.3438 6.5625C15.3438 7.21354 15.2135 7.84505 14.9531 8.45703C14.6797 9.05599 14.3216 9.58659 13.8789 10.0488C13.4362 10.5111 12.9219 10.8789 12.3359 11.1523C11.75 11.4258 11.138 11.5625 10.5 11.5625C9.86198 11.5625 9.25 11.4258 8.66406 11.1523C8.07812 10.8789 7.5638 10.5111 7.12109 10.0488C6.67839 9.58659 6.32031 9.05599 6.04688 8.45703C5.78646 7.84505 5.65625 7.21354 5.65625 6.5625Z" fill="white"/>
</svg>
