<svg width="33" height="18" viewBox="0 0 33 18" fill="none" xmlns="http://www.w3.org/2000/svg">
<path d="M31.3301 1H1.33008C1.06488 1 0.810478 1.10536 0.622978 1.29289C0.435478 1.48043 0.330078 1.73479 0.330078 2V16.66C0.330078 16.9252 0.435478 17.1796 0.622978 17.3671C0.810478 17.5547 1.06488 17.66 1.33008 17.66H31.3301C31.5951 17.66 31.8501 17.5547 32.0371 17.3671C32.2251 17.1796 32.3301 16.9252 32.3301 16.66V2C32.3301 1.73479 32.2251 1.48043 32.0371 1.29289C31.8501 1.10536 31.5951 1 31.3301 1Z" fill="white" stroke="#E0E0E0" stroke-width="0.67"/>
<path d="M12.79 14.3301C13.7789 14.3301 14.7456 14.0369 15.5678 13.4874C16.3901 12.938 17.0309 12.1571 17.4094 11.2435C17.7878 10.3299 17.8868 9.32454 17.6939 8.35463C17.501 7.38473 17.0248 6.49381 16.3255 5.79455C15.6262 5.09529 14.7353 4.61908 13.7654 4.42616C12.7955 4.23323 11.7902 4.33225 10.8765 4.71068C9.96294 5.08912 9.18204 5.72999 8.63264 6.55223C8.08324 7.37448 7.79004 8.34118 7.79004 9.33008C7.79004 10.6562 8.31674 11.928 9.25444 12.8656C10.1921 13.8033 11.4639 14.3301 12.79 14.3301Z" fill="#007BDB"/>
<path d="M19.8701 14.3302C20.8563 14.3184 21.8171 14.0151 22.6314 13.4586C23.4457 12.902 24.0772 12.117 24.4465 11.2024C24.8157 10.2878 24.9062 9.28442 24.7066 8.3185C24.5069 7.35258 24.0261 6.46729 23.3245 5.77401C22.6229 5.08074 21.7319 4.61046 20.7637 4.42235C19.7954 4.23423 18.7932 4.33669 17.8831 4.71683C16.9729 5.09697 16.1955 5.7378 15.6487 6.5587C15.1019 7.37959 14.8102 8.34387 14.8101 9.33021C14.81 9.9919 14.9413 10.647 15.1963 11.2576C15.4514 11.8682 15.825 12.4221 16.2957 12.8871C16.7664 13.3522 17.3247 13.7193 17.9382 13.967C18.5518 14.2147 19.2084 14.3382 19.8701 14.3302Z" fill="#E42B00"/>
<path fill-rule="evenodd" clip-rule="evenodd" d="M16.3301 12.91C17.2268 11.9228 17.7626 10.6609 17.8501 9.33C17.7626 7.99917 17.2268 6.73724 16.3301 5.75C15.8385 6.20569 15.4488 6.76028 15.1869 7.3773C14.9249 7.99432 14.7965 8.65981 14.8101 9.33C14.7984 9.99993 14.9276 10.6649 15.1895 11.2816C15.4514 11.8984 15.84 12.4532 16.3301 12.91Z" fill="#1740CE"/>
</svg>
